HIERARCHY
ROOT Pelvis
{
	OFFSET 0.000000 0.000000 0.000000
	CHANNELS 6 Xposition Yposition Zposition Xrotation Yrotation Zrotation
	JOINT LeftUpLeg_virtual
	{
		OFFSET 0.000000 0.000000 0.000000
		CHANNELS 3 Xrotation Yrotation Zrotation
		JOINT LeftUpLeg
		{
			OFFSET 8.479700 -4.795502 -0.379100
			CHANNELS 3 Xrotation Yrotation Zrotation
			JOINT LeftLeg
			{
				OFFSET 0.024144 -32.555107 0.112900
				CHANNELS 3 Xrotation Yrotation Zrotation
				JOINT LeftFoot
				{
					OFFSET -0.024144 -32.638630 -3.012600
					CHANNELS 3 Xrotation Yrotation Zrotation
					JOINT LeftToeBase
					{
						OFFSET 0.970200 -13.225400 11.864200
						CHANNELS 3 Xrotation Yrotation Zrotation
						End Site
						{
							OFFSET 0 0 0
						}
					}
				}
			}
		}
	}
	JOINT RightUpLeg_virtual
	{
		OFFSET 0.000000 0.000000 0.000000
		CHANNELS 3 Xrotation Yrotation Zrotation
		JOINT RightUpLeg
		{
			OFFSET -8.479700 -4.795502 -0.379100
			CHANNELS 3 Xrotation Yrotation Zrotation
			JOINT RightLeg
			{
				OFFSET -0.023144 -32.555092 0.112900
				CHANNELS 3 Xrotation Yrotation Zrotation
				JOINT RightFoot
				{
					OFFSET 0.023144 -32.638641 -3.012700
					CHANNELS 3 Xrotation Yrotation Zrotation
					JOINT RightToeBase
					{
						OFFSET -0.970200 -13.225400 11.864200
						CHANNELS 3 Xrotation Yrotation Zrotation
						End Site
						{
							OFFSET 0 0 0
						}
					}
				}
			}
		}
	}
	JOINT Hips_virtual
	{
		OFFSET 0.000000 0.000000 0.000000
		CHANNELS 3 Xrotation Yrotation Zrotation
		JOINT Hips
		{
			OFFSET -0.000000 -0.000000 -0.000000
			CHANNELS 3 Xrotation Yrotation Zrotation
			JOINT Spine
			{
				OFFSET 0.000000 7.722000 1.166200
				CHANNELS 3 Xrotation Yrotation Zrotation
				JOINT Spine1
				{
					OFFSET 0.000000 12.024101 0.248800
					CHANNELS 3 Xrotation Yrotation Zrotation
					JOINT Spine2
					{
						OFFSET 0.000000 11.502998 -0.491200
						CHANNELS 3 Xrotation Yrotation Zrotation
						JOINT Neck_virtual
						{
							OFFSET 0.000000 0.000000 0.000000
							CHANNELS 3 Xrotation Yrotation Zrotation
							JOINT Neck
							{
								OFFSET 0.000000 18.430702 -3.123100
								CHANNELS 3 Xrotation Yrotation Zrotation
								JOINT Head
								{
									OFFSET 0.000000 9.051102 1.034000
									CHANNELS 3 Xrotation Yrotation Zrotation
									End Site
									{
										OFFSET 0 0 0
									}
								}
							}
						}
						JOINT LeftShoulder_virtual
						{
							OFFSET 0.000000 0.000000 0.000000
							CHANNELS 3 Xrotation Yrotation Zrotation
							JOINT LeftShoulder
							{
								OFFSET 6.197800 13.665199 -4.064700
								CHANNELS 3 Xrotation Yrotation Zrotation
								JOINT LeftArm
								{
									OFFSET 7.778100 -0.187103 -1.709300
									CHANNELS 3 Xrotation Yrotation Zrotation
									JOINT LeftForeArm
									{
										OFFSET 22.049376 0.000000 0.000000
										CHANNELS 3 Xrotation Yrotation Zrotation
										JOINT LeftHand
										{
											OFFSET 23.009392 0.000000 0.000000
											CHANNELS 3 Xrotation Yrotation Zrotation
											End Site
											{
												OFFSET 0 0 0
											}
										}
									}
								}
							}
						}
						JOINT RightShoulder_virtual
						{
							OFFSET 0.000000 0.000000 0.000000
							CHANNELS 3 Xrotation Yrotation Zrotation
							JOINT RightShoulder
							{
								OFFSET -6.197800 13.665199 -4.064700
								CHANNELS 3 Xrotation Yrotation Zrotation
								JOINT RightArm
								{
									OFFSET -7.778100 -0.187103 -1.709300
									CHANNELS 3 Xrotation Yrotation Zrotation
									JOINT RightForeArm
									{
										OFFSET -22.049376 0.000000 0.000000
										CHANNELS 3 Xrotation Yrotation Zrotation
										JOINT RightHand
										{
											OFFSET -23.009392 0.000000 0.000000
											CHANNELS 3 Xrotation Yrotation Zrotation
											End Site
											{
												OFFSET 0 0 0
											}
										}
									}
								}
							}
						}
					}
				}
			}
		}
	}
}
MOTION
Frames: 9
Frame Time: 0.03333333
2.861582 34.829117 -12.664280 0.000000 0.000000 0.000000 35.523353 3.192274 2.186512 -74.834216 -6.261152 5.867939 130.165688 2.660343 -1.106409 29.079394 6.622964 -22.148762 0.000000 0.000000 0.000000 35.523353 3.192274 2.186512 -69.183956 14.379695 -21.166367 130.313944 2.923816 2.017252 22.152327 8.135431 12.397950 0.000000 0.000000 0.000000 35.523353 3.192274 2.186512 0.000000 0.000000 0.000000 20.873401 4.828400 -5.646653 16.625276 2.079679 -1.485671 0.000000 0.000000 0.000000 17.328738 1.234476 -2.301335 5.476094 -1.525564 3.253846 0.000000 0.000000 0.000000 17.328738 1.234476 -2.301335 1.353966 -36.456647 -6.881264 -62.004491 -39.879897 -54.567727 -0.000014 -60.951864 -0.000033 0.000000 0.000000 0.000000 17.328738 1.234476 -2.301335 0.501204 13.720769 0.229931 -44.186877 22.328126 43.767924 0.000020 66.681989 -0.000038 0.000000 0.000000 0.000000 
2.599411 34.719673 -13.192966 0.000000 0.000000 0.000000 33.209889 2.321346 2.187381 -73.029271 -6.570795 7.014358 130.836385 1.921150 -0.979225 29.095455 6.715836 -22.374231 0.000000 0.000000 0.000000 33.209889 2.321346 2.187381 -68.527069 13.733472 -19.758521 131.173018 2.358955 1.313786 22.369506 7.675684 12.504931 0.000000 0.000000 0.000000 33.209889 2.321346 2.187381 0.000002 0.000000 0.000000 21.200040 4.555999 -6.360662 17.022950 1.980981 -1.805810 0.000000 0.000000 0.000000 18.108141 1.141504 -2.575396 5.617633 -1.520869 3.438340 0.000000 0.000000 0.000000 18.108141 1.141504 -2.575396 0.477522 -34.381799 -9.362758 -61.426172 -41.959399 -53.402230 -0.000042 -61.272889 -0.000044 0.000000 0.000000 0.000000 18.108141 1.141504 -2.575396 0.583486 12.269620 0.145178 -46.315229 24.522730 46.813461 0.000004 65.396056 -0.000014 0.000000 0.000000 0.000000 
2.415788 34.666473 -13.538338 0.000000 0.000000 0.000000 31.500228 1.706623 2.161968 -71.593401 -6.734084 7.833540 131.234217 1.518854 -0.859822 29.091958 6.702619 -22.487126 0.000000 0.000000 0.000000 31.500228 1.706623 2.161968 -67.854603 13.339458 -18.752249 131.691607 2.317809 0.924976 22.505316 7.064361 12.737655 0.000000 0.000000 0.000000 31.500228 1.706623 2.161968 0.000000 0.000000 0.000000 21.407404 4.209321 -6.745880 17.202557 1.870333 -1.986120 0.000000 0.000000 0.000000 18.500448 1.040075 -2.690536 5.684570 -1.489046 3.465682 0.000000 0.000000 0.000000 18.500448 1.040075 -2.690536 -0.501352 -31.291071 -12.871384 -60.476728 -44.977373 -51.911760 0.000027 -61.886514 0.000025 0.000000 0.000000 0.000000 18.500448 1.040075 -2.690536 0.552214 11.477478 0.087595 -48.643190 26.757882 49.917153 0.000005 63.773579 0.000010 0.000000 0.000000 0.000000 
2.280008 34.640976 -13.788528 0.000000 0.000000 0.000000 30.136997 1.222615 2.130724 -70.370695 -6.932055 8.477019 131.498545 1.342196 -0.836223 29.073489 6.529627 -22.473033 0.000000 0.000000 0.000000 30.136997 1.222615 2.130724 -67.211568 13.117056 -18.000345 132.037706 2.654054 0.729589 22.611990 6.312015 13.008359 0.000000 0.000000 0.000000 30.136997 1.222615 2.130724 0.000004 0.000000 0.000000 21.525691 3.866272 -6.990644 17.308521 1.764367 -2.107498 0.000000 0.000000 0.000000 18.739551 0.943237 -2.743026 5.724960 -1.448774 3.430576 0.000000 0.000000 0.000000 18.739551 0.943237 -2.743026 -1.190603 -27.773393 -16.681110 -58.867440 -47.971615 -49.903316 0.000005 -63.757617 0.000014 0.000000 0.000000 0.000000 18.739551 0.943237 -2.743026 0.425787 11.211947 0.063302 -50.733607 28.440158 52.955604 -0.000042 62.997574 0.000036 0.000000 0.000000 0.000000 
2.179956 34.637199 -13.966553 0.000000 0.000000 0.000000 29.033703 0.836597 2.098966 -69.323510 -7.064702 8.980275 131.662046 1.389009 -0.815324 29.043709 6.257010 -22.360042 0.000000 0.000000 0.000000 29.033703 0.836597 2.098966 -66.474160 13.397625 -17.461302 132.237899 3.505957 0.967310 22.696654 5.479907 13.295473 0.000000 0.000000 0.000000 29.033703 0.836597 2.098966 -0.000001 0.000000 0.000000 21.578355 3.526346 -7.130025 17.359160 1.662021 -2.184650 0.000000 0.000000 0.000000 18.863261 0.849934 -2.748509 5.745515 -1.402226 3.348719 0.000000 0.000000 0.000000 18.863261 0.849934 -2.748509 -1.471512 -24.595006 -20.001010 -56.443724 -50.000516 -47.503467 -0.000014 -67.329403 -0.000017 0.000000 0.000000 0.000000 18.863261 0.849934 -2.748509 0.263112 11.153647 0.069187 -51.972067 29.135661 55.668279 -0.000027 63.901529 0.000024 0.000000 0.000000 0.000000 
2.103364 34.648300 -14.096169 0.000000 0.000000 0.000000 28.104039 0.515968 2.068040 -68.409262 -7.068887 9.385515 131.757231 1.596562 -0.737884 29.004835 5.962648 -22.193996 0.000000 0.000000 0.000000 28.104039 0.515968 2.068040 -65.689215 14.001205 -16.974405 132.331063 4.576520 1.442672 22.753889 4.682510 13.668739 0.000000 0.000000 0.000000 28.104039 0.515968 2.068040 0.000001 0.000000 0.000000 21.588251 3.188910 -7.199091 17.372588 1.562213 -2.232260 0.000000 0.000000 0.000000 18.909462 0.759111 -2.722673 5.752869 -1.351584 3.235789 0.000000 0.000000 0.000000 18.909462 0.759111 -2.722673 -1.509610 -22.291140 -22.321485 -53.750823 -50.637516 -45.214193 -0.000016 -71.519136 -0.000030 0.000000 0.000000 0.000000 18.909462 0.759111 -2.722673 0.132926 11.019570 0.091521 -52.602900 29.258973 58.205656 0.000068 65.435507 -0.000090 0.000000 0.000000 0.000000 
2.038895 34.666695 -14.201431 0.000000 0.000000 0.000000 27.262039 0.228490 2.036500 -67.568486 -6.972202 9.745492 131.816121 1.928759 -0.605092 28.961877 5.634902 -21.994751 0.000000 0.000000 0.000000 27.262039 0.228490 2.036500 -65.054738 14.225116 -16.562770 132.398791 5.302982 1.640599 22.817965 3.991379 13.944338 0.000000 0.000000 0.000000 27.262039 0.228490 2.036500 0.000000 0.000000 0.000000 21.577247 2.853232 -7.232909 17.366649 1.463862 -2.265010 0.000000 0.000000 0.000000 18.915895 0.669725 -2.681168 5.753618 -1.299036 3.107461 0.000000 0.000000 0.000000 18.915895 0.669725 -2.681168 -1.505342 -20.967094 -23.570361 -51.635315 -49.991589 -43.575463 0.000129 -74.725773 0.000135 0.000000 0.000000 0.000000 18.915895 0.669725 -2.681168 0.078035 10.725504 0.114942 -53.386514 29.562216 60.897693 0.000023 65.806223 -0.000039 0.000000 0.000000 0.000000 
1.975359 34.684280 -14.306698 0.000000 0.000000 0.000000 26.421815 -0.057802 2.000756 -66.743338 -6.788230 10.102508 131.869451 2.266606 -0.410145 28.920558 5.351358 -21.824652 0.000000 0.000000 0.000000 26.421815 -0.057802 2.000756 -64.444337 14.386617 -16.164421 132.473199 5.798545 1.783130 22.892967 3.477765 14.133206 0.000000 0.000000 0.000000 26.421815 -0.057802 2.000756 0.000001 0.000000 0.000000 21.566495 2.518673 -7.266427 17.359739 1.365897 -2.297586 0.000000 0.000000 0.000000 18.920228 0.580723 -2.639673 5.757401 -1.246764 2.979424 0.000000 0.000000 0.000000 18.920228 0.580723 -2.639673 -1.525704 -20.379548 -24.013883 -50.462489 -48.615832 -42.972398 0.000038 -76.366665 0.000034 0.000000 0.000000 0.000000 18.920228 0.580723 -2.639673 0.098879 10.378461 0.132040 -54.273725 30.137383 63.425424 -0.000009 64.822634 -0.000004 0.000000 0.000000 0.000000 
1.901666 34.692490 -14.436569 0.000000 0.000000 0.000000 25.497666 -0.374560 1.955505 -65.863808 -6.602089 10.498963 131.949392 2.477987 -0.198279 28.890983 5.159836 -21.729571 0.000000 0.000000 0.000000 25.497666 -0.374560 1.955505 -63.878484 14.339052 -15.701985 132.611456 5.908379 1.744395 22.987289 3.166348 14.240891 0.000000 0.000000 0.000000 25.497666 -0.374560 1.955505 0.000000 0.000000 0.000000 21.576264 2.184607 -7.334691 17.369197 1.267241 -2.344662 0.000000 0.000000 0.000000 18.959975 0.491062 -2.613836 5.762302 -1.196954 2.867358 0.000000 0.000000 0.000000 18.959975 0.491062 -2.613836 -1.471824 -20.158960 -23.820409 -50.248944 -46.850030 -43.581412 -0.000059 -76.454228 -0.000054 0.000000 0.000000 0.000000 18.959975 0.491062 -2.613836 0.165549 10.138402 0.143768 -55.185985 31.021418 65.611268 0.000018 62.565264 -0.000030 0.000000 0.000000 0.000000 
